<svg class="svg-icon" style="width: 1em; height: 1em;vertical-align: middle;fill: currentColor;overflow: hidden;" viewBox="0 0 1024 1024" version="1.1" xmlns="http://www.w3.org/2000/svg"><path d="M894.030769 655.753846H945.230769l-23.630769-80.738461 23.630769-80.738462h-86.646154c-15.753846-47.261538-37.415385-94.523077-68.923077-141.784615-29.538462-43.323077-64.984615-84.676923-110.276923-124.061539-45.292308-37.415385-100.430769-70.892308-165.415384-96.492307l-3.938462-1.969231-3.938461 1.969231s-25.6 5.907692-61.046154 23.630769c-27.569231 13.784615-61.046154 33.476923-96.492308 61.046154-53.169231 41.353846-110.276923 100.430769-153.6 185.107692-13.784615 27.569231-27.569231 59.076923-37.415384 92.553846H78.769231l23.630769 80.738462L78.769231 655.753846h47.261538c-1.969231 25.6-3.938462 51.2-3.938461 76.8 0 13.784615 0 29.538462 1.96923 45.292308v7.876923l5.907693 3.938461s41.353846 23.630769 108.307692 45.292308c68.923077 23.630769 163.446154 45.292308 277.661539 45.292308 90.584615 0 191.015385-13.784615 297.353846-55.138462 25.6-9.846154 53.169231-21.661538 78.76923-35.446154l5.907693-3.938461h1.969231v-53.169231c0-19.692308-1.969231-45.292308-5.907693-76.8zM116.184615 628.184615l15.753847-53.16923-15.753847-53.169231h791.63077l-15.753847 53.169231 15.753847 53.16923H116.184615z m141.784616-133.907692l57.107692-96.492308 1.969231-1.96923 49.230769-80.738462 82.707692 104.369231 49.23077-49.230769L551.384615 433.230769l80.738462-118.153846 131.938461 179.2H257.969231z m-51.2-53.169231c9.846154-21.661538 21.661538-43.323077 33.476923-63.015384 1.969231-3.938462 3.938462-5.907692 5.907692-9.846154 1.969231-1.969231 3.938462-5.907692 5.907692-7.876923C354.461538 202.830769 504.123077 157.538462 506.092308 157.538462l3.938461-1.969231 3.938462 1.969231c106.338462 43.323077 181.169231 108.307692 234.338461 181.16923 17.723077 21.661538 31.507692 45.292308 45.292308 68.923077 15.753846 27.569231 27.569231 57.107692 37.415385 84.676923h-31.507693c-43.323077-114.215385-128-238.276923-289.476923-307.2-33.476923 9.846154-212.676923 78.769231-293.415384 307.2H185.107692c5.907692-15.753846 13.784615-33.476923 21.661539-51.2z m665.6 320.984616v7.876923l-7.876923 3.938461c-124.061538 61.046154-242.215385 82.707692-348.553846 82.707693-192.984615 0-336.738462-68.923077-358.4-80.738462-3.938462-1.969231-5.907692-3.938462-7.876924-3.938461h-1.96923v-7.876924c0-37.415385 0-70.892308 3.938461-104.36923h29.538462c-3.938462 25.6-5.907692 57.107692-3.938462 92.553846 27.569231 13.784615 129.969231 59.076923 267.815385 70.892308 31.507692-17.723077 53.169231-53.169231 1.969231-96.492308h-3.938462l-1.969231-1.969231-1.96923-1.969231-1.969231-1.96923v-1.969231l-1.969231-1.969231v-1.969231l-1.969231-1.969231V708.923077c-7.876923-15.753846 0-31.507692 47.261539-35.446154 13.784615-1.969231 61.046154 1.969231 43.323077-15.753846h23.630769c13.784615 15.753846 13.784615 35.446154-57.107692 43.323077-9.846154 0-13.784615 5.907692-11.815385 9.846154h1.969231c72.861538 17.723077 90.584615 70.892308 84.676923 108.307692 84.676923-5.907692 177.230769-27.569231 269.784615-72.861538 0-15.753846 0-49.230769-5.907692-94.523077h29.538461c0 7.876923 1.969231 15.753846 1.969231 23.630769 13.784615 53.169231 11.815385 84.676923 11.815385 86.646154z"  /></svg>